<svg xmlns="http://www.w3.org/2000/svg" viewBox="0 0 867.24 491.31"><defs><style>.cls-1{fill:#f4c22a;stroke:#f4c22a;}.cls-1,.cls-2{stroke-linecap:round;stroke-linejoin:round;}.cls-2{fill:#111414;stroke:#111414;}.cls-3{fill:#2b4c9a;}.cls-4{fill:#1d1d1b;}</style></defs><g id="Camada_2" data-name="Camada 2"><g id="Camada_1-2" data-name="Camada 1"><g id="logo"><polygon class="cls-1" points="0.5 158.11 535.88 0.5 866.75 162.7 821.21 162.7 535.88 41.89 0.5 158.11"/><polygon class="cls-2" points="866.75 333.2 331.36 490.81 0.5 328.61 46.04 328.61 331.36 449.42 866.75 333.2"/><path class="cls-3" d="M116.25,181.19h82.92q23.34,0,27.26,15.06l.37,2.7q0,8.51-16.06,35.91Q201.5,254,190.58,259.18l-9.71,2.32v.39q7.45,0,9,7.33v1.16q0,3.76-17.93,35.13l-2.24,3.86-20.54.39H134.93l-.75-.77,17.18-31.66H99.07l-18.3,32H46q2.24-5.69,32.49-59.84Q114.67,182.84,116.25,181.19Zm.38,64.48h29.5q25.31,0,29.51-12,5.6-10,5.6-13.13v-2.7c-1.5-2.57-4.48-3.86-9-3.86H134.18Q116.63,244.22,116.63,245.67Z"/><path class="cls-3" d="M336,182q20.07,0,25.77,12.35l.74,4.63v1.16q0,8.2-14.19,32Q306.55,307.73,305,309.37H270.6l16.8-31.65h-53q-1.5,1.54-17.56,31.65l-.37.39H181.33v-.39q51.16-93.13,56-100.38,14.29-16.22,22.79-19.69a53,53,0,0,1,22.41-7Zm-84.41,64.47h53Q318,224.83,318,222.12v-1.55q0-6.16-12.7-6.17H287.78Q267,214.4,256,238C253,242.9,251.55,245.74,251.55,246.44Z"/><path class="cls-3" d="M527.65,182v.38q-1.5,1.54-44.82,28.19-5.24,3.86-6.72,3.86H404.77l-10.08,18.92H444v.77L402.53,258.8H380.12l-28.38,51H317.37l-.37-.39h-.37L387.22,182Z"/><path class="cls-3" d="M561,182.74v.77L491.89,309.37l-.38.39h-34l-.38-.39h-.37L525.5,182.74Z"/><path class="cls-3" d="M613.83,182h98.6v.38q-47.8,32.06-49.67,32.05h-28L610.84,214q-16.07,0-29.5,19.69h54.53q17.93,0,22.4,9.65l.75,3.48v2.7q0,7-15.31,31.27-13.92,19.32-32.12,25.1-11.4,3.86-19.05,3.86H504.77V309l45.57-27.8c3.79-2.57,6.16-3.86,7.09-3.86l37.35-.39q6.72,0,15.69-5.4,9.24-8,10.08-12.36H573.87q-26.61,0-29.14-9.26l-1.12-4.25v-1.93q0-9.08,19.8-37.45Q581.05,182,613.83,182Z"/><path class="cls-3" d="M794.69,182q20.07,0,25.77,12.35l.75,4.63v1.16q0,8.2-14.19,32-41.74,75.57-43.33,77.21H729.33l16.81-31.65h-53q-1.49,1.54-17.55,31.65l-.37.39H640.07v-.39q51.16-93.13,56-100.38,14.28-16.22,22.78-19.69a53.11,53.11,0,0,1,22.41-7Zm-84.41,64.47h53q13.44-21.62,13.44-24.32v-1.55q0-6.16-12.69-6.17H746.51q-20.73,0-31.75,23.55C711.78,242.9,710.28,245.74,710.28,246.44Z"/><path class="cls-4" d="M521,336.58c-.43.19-.82.36-1.16.53a13.23,13.23,0,0,1-1.35.51,15.08,15.08,0,0,1-1.54.38,10.43,10.43,0,0,1-1.83.15,10.23,10.23,0,0,1-3.42-.53A6.94,6.94,0,0,1,509,336a7.37,7.37,0,0,1-1.74-2.81,12.61,12.61,0,0,1,0-7.78,7.77,7.77,0,0,1,1.74-2.84,7.32,7.32,0,0,1,2.67-1.72,9.61,9.61,0,0,1,3.47-.6,12,12,0,0,1,2.78.34,14.87,14.87,0,0,1,3.09,1.19v2.73h-.18a10.28,10.28,0,0,0-2.83-1.75,8.33,8.33,0,0,0-3-.54,6.37,6.37,0,0,0-2.37.42,5.2,5.2,0,0,0-1.87,1.32,6,6,0,0,0-1.25,2.2,9.61,9.61,0,0,0-.45,3.08,9.1,9.1,0,0,0,.49,3.13,6.28,6.28,0,0,0,1.28,2.14,5,5,0,0,0,1.9,1.27,6.29,6.29,0,0,0,2.29.42,8.39,8.39,0,0,0,3.11-.57,8.87,8.87,0,0,0,2.72-1.71H521Z"/><path class="cls-4" d="M535.11,331.36a7.29,7.29,0,0,1-1.63,5,6.1,6.1,0,0,1-8.73,0,8.56,8.56,0,0,1,0-10,6.1,6.1,0,0,1,8.73,0A7.34,7.34,0,0,1,535.11,331.36Zm-2.26,0a5.9,5.9,0,0,0-1-3.75,3.69,3.69,0,0,0-5.5,0,7.54,7.54,0,0,0,0,7.45,3.29,3.29,0,0,0,2.75,1.26,3.33,3.33,0,0,0,2.74-1.25A5.89,5.89,0,0,0,532.85,331.36Z"/><path class="cls-4" d="M557.42,337.84h-2.18v-7.39c0-.56,0-1.1-.07-1.62a3.28,3.28,0,0,0-.33-1.24,1.72,1.72,0,0,0-.76-.75,3.28,3.28,0,0,0-1.44-.26,4,4,0,0,0-1.84.46,11,11,0,0,0-1.83,1.17c0,.17,0,.38,0,.62s0,.47,0,.7v8.31h-2.19v-7.39c0-.57,0-1.12-.07-1.63a3.43,3.43,0,0,0-.32-1.24,1.8,1.8,0,0,0-.77-.75,3.24,3.24,0,0,0-1.44-.25,4.1,4.1,0,0,0-1.79.44,11.13,11.13,0,0,0-1.8,1.13v9.69h-2.18v-13h2.18v1.44a9.4,9.4,0,0,1,2-1.32,5,5,0,0,1,2.17-.48,4.32,4.32,0,0,1,2.25.56,3.47,3.47,0,0,1,1.37,1.54,10.86,10.86,0,0,1,2.42-1.61,5.56,5.56,0,0,1,2.33-.49,3.75,3.75,0,0,1,3.16,1.3,5.71,5.71,0,0,1,1,3.62Z"/><path class="cls-4" d="M572.49,331.58h-9.56a5.52,5.52,0,0,0,.36,2.08,3.93,3.93,0,0,0,1,1.46,4,4,0,0,0,1.43.84,6,6,0,0,0,1.83.28,7.26,7.26,0,0,0,2.67-.53,6.84,6.84,0,0,0,1.91-1h.12v2.38a18.28,18.28,0,0,1-2.26.78,9,9,0,0,1-2.41.31,6.91,6.91,0,0,1-5-1.75,6.56,6.56,0,0,1-1.82-5,7.13,7.13,0,0,1,1.74-5.06A5.93,5.93,0,0,1,567,324.5a5.26,5.26,0,0,1,4.05,1.53,6.19,6.19,0,0,1,1.42,4.36Zm-2.12-1.68a3.88,3.88,0,0,0-.87-2.66,3.31,3.31,0,0,0-2.59-.94,3.82,3.82,0,0,0-2.8,1,4.11,4.11,0,0,0-1.18,2.57Zm.26-11.53-3.17,4.34h-1.73l2.08-4.34Z"/><path class="cls-4" d="M583.9,327.24h-.11a9.11,9.11,0,0,0-.95-.17c-.31,0-.67-.05-1.09-.05a4.49,4.49,0,0,0-2,.45,9,9,0,0,0-1.81,1.15v9.22H575.8v-13H578v1.92a10.43,10.43,0,0,1,2.29-1.48,5,5,0,0,1,2-.44,8.18,8.18,0,0,1,.83,0l.76.11Z"/><path class="cls-4" d="M595.56,337a14.52,14.52,0,0,1-2.08.81,7.41,7.41,0,0,1-2.08.29,7.84,7.84,0,0,1-2.58-.41,5.19,5.19,0,0,1-2-1.25,5.55,5.55,0,0,1-1.32-2.12,8.68,8.68,0,0,1-.46-3,6.88,6.88,0,0,1,1.75-5,6.1,6.1,0,0,1,4.62-1.81,7.78,7.78,0,0,1,2.19.31,12.05,12.05,0,0,1,2,.77v2.43h-.12a8.36,8.36,0,0,0-2.06-1.2,5.64,5.64,0,0,0-2.08-.42,3.67,3.67,0,0,0-2.93,1.25,6.71,6.71,0,0,0,0,7.27,3.6,3.6,0,0,0,2.95,1.27,5.34,5.34,0,0,0,1.35-.18,6.31,6.31,0,0,0,1.23-.45,9.65,9.65,0,0,0,.9-.52,7.48,7.48,0,0,0,.66-.47h.12Z"/><path class="cls-4" d="M600.7,322.69h-2.46v-2.27h2.46Zm-.14,15.15h-2.18v-13h2.18Z"/><path class="cls-4" d="M616,331.36a7.29,7.29,0,0,1-1.63,5,6.1,6.1,0,0,1-8.73,0,8.56,8.56,0,0,1,0-10,6.1,6.1,0,0,1,8.73,0A7.34,7.34,0,0,1,616,331.36Zm-2.26,0a5.9,5.9,0,0,0-1-3.75,3.31,3.31,0,0,0-2.74-1.23,3.34,3.34,0,0,0-2.76,1.23,7.54,7.54,0,0,0,0,7.45,3.63,3.63,0,0,0,5.49,0A5.89,5.89,0,0,0,613.69,331.36Z"/><path class="cls-4" d="M638.22,337.84H636v-1.36a8.34,8.34,0,0,1-2,1.27,5.44,5.44,0,0,1-2.22.45,4.41,4.41,0,0,1-3.69-1.79,8.08,8.08,0,0,1-1.36-5,8.64,8.64,0,0,1,.47-2.94,6.87,6.87,0,0,1,1.27-2.2,5.44,5.44,0,0,1,4-1.81,6.6,6.6,0,0,1,1.81.22,8.48,8.48,0,0,1,1.67.66v-5.62h2.18Zm-2.18-3.2V327.2a7.89,7.89,0,0,0-1.58-.55,7.35,7.35,0,0,0-1.53-.15,3.42,3.42,0,0,0-2.85,1.28,5.61,5.61,0,0,0-1,3.62,6.51,6.51,0,0,0,.79,3.52,2.83,2.83,0,0,0,2.54,1.2,4.8,4.8,0,0,0,1.88-.41A8.09,8.09,0,0,0,636,334.64Z"/><path class="cls-4" d="M653.38,331.58h-9.56a5.52,5.52,0,0,0,.36,2.08,3.93,3.93,0,0,0,1,1.46,4,4,0,0,0,1.43.84,6,6,0,0,0,1.83.28,7.26,7.26,0,0,0,2.67-.53,6.84,6.84,0,0,0,1.91-1h.12v2.38a18.28,18.28,0,0,1-2.26.78,9,9,0,0,1-2.41.31,6.91,6.91,0,0,1-5-1.75,6.56,6.56,0,0,1-1.82-5,7.13,7.13,0,0,1,1.74-5.06,5.93,5.93,0,0,1,4.57-1.87A5.26,5.26,0,0,1,652,326a6.19,6.19,0,0,1,1.42,4.36Zm-2.12-1.68a3.88,3.88,0,0,0-.87-2.66,3.31,3.31,0,0,0-2.59-.94,3.82,3.82,0,0,0-2.8,1,4.05,4.05,0,0,0-1.18,2.57Z"/><path class="cls-4" d="M677.81,332.9a4.65,4.65,0,0,1-.47,2,4.8,4.8,0,0,1-1.32,1.67,6.85,6.85,0,0,1-2.17,1.16,9.35,9.35,0,0,1-3,.42,14.48,14.48,0,0,1-3.37-.35,16.69,16.69,0,0,1-3-1v-2.88h.16a9.42,9.42,0,0,0,3,1.68,9.88,9.88,0,0,0,3.23.6,5.85,5.85,0,0,0,3.33-.81,2.45,2.45,0,0,0,1.19-2.13,2.29,2.29,0,0,0-.56-1.7,3.89,3.89,0,0,0-1.72-.85,17.81,17.81,0,0,0-1.88-.38q-1-.15-2.16-.39a6.4,6.4,0,0,1-3.41-1.66,4.56,4.56,0,0,1,.73-6.64,7.52,7.52,0,0,1,4.66-1.39,15.09,15.09,0,0,1,3.34.35,15.91,15.91,0,0,1,2.7.86v2.72H677a8.06,8.06,0,0,0-2.6-1.39,10.29,10.29,0,0,0-3.3-.55,5.14,5.14,0,0,0-3,.77,2.31,2.31,0,0,0-1.13,2,2.45,2.45,0,0,0,.56,1.7,3.85,3.85,0,0,0,2,.94c.49.11,1.2.24,2.11.4s1.69.31,2.33.47a6,6,0,0,1,2.9,1.55A4,4,0,0,1,677.81,332.9Z"/><path class="cls-4" d="M691.41,337.84h-2.17v-1.38c-.19.13-.46.31-.79.55a6,6,0,0,1-1,.56,6.63,6.63,0,0,1-1.26.45,6.8,6.8,0,0,1-1.66.18,4.19,4.19,0,0,1-3-1.16,3.93,3.93,0,0,1-1.21-3,4.09,4.09,0,0,1,.63-2.38,4.19,4.19,0,0,1,1.81-1.44,9.74,9.74,0,0,1,2.84-.71c1.11-.12,2.3-.21,3.57-.28v-.33a2.61,2.61,0,0,0-.26-1.23,2,2,0,0,0-.75-.77,3,3,0,0,0-1.12-.36,9.81,9.81,0,0,0-1.36-.09,9.18,9.18,0,0,0-1.91.22,14.25,14.25,0,0,0-2.19.66h-.12v-2.22c.43-.12,1.05-.24,1.85-.38a13.93,13.93,0,0,1,2.38-.21,11.12,11.12,0,0,1,2.39.22,4.49,4.49,0,0,1,1.76.78,3.38,3.38,0,0,1,1.12,1.38,5.19,5.19,0,0,1,.38,2.1Zm-2.17-3.2V331l-2.35.17a12.12,12.12,0,0,0-2.15.34,3.59,3.59,0,0,0-1.52.83,2.4,2.4,0,0,0,.09,3.23,3.15,3.15,0,0,0,2.06.57,4.82,4.82,0,0,0,2.1-.45A9.3,9.3,0,0,0,689.24,334.64Z"/><path class="cls-4" d="M705.21,337a14.89,14.89,0,0,1-2.07.81,7.49,7.49,0,0,1-2.09.29,7.93,7.93,0,0,1-2.58-.41,5.34,5.34,0,0,1-2-1.25,5.65,5.65,0,0,1-1.31-2.12,8.68,8.68,0,0,1-.46-3,6.92,6.92,0,0,1,1.74-5,6.13,6.13,0,0,1,4.62-1.81,7.68,7.68,0,0,1,2.19.31,11.38,11.38,0,0,1,2,.77v2.43h-.11a8.42,8.42,0,0,0-2.07-1.2,5.62,5.62,0,0,0-2.07-.42A3.66,3.66,0,0,0,698,327.7a6.74,6.74,0,0,0,0,7.27,3.63,3.63,0,0,0,3,1.27,5.34,5.34,0,0,0,1.35-.18,6.31,6.31,0,0,0,1.23-.45,8.34,8.34,0,0,0,.89-.52c.28-.18.5-.34.67-.47h.11Z"/><path class="cls-4" d="M718.1,337.84h-2.17v-1.38c-.2.13-.46.31-.79.55a6.09,6.09,0,0,1-1,.56,6.28,6.28,0,0,1-1.25.45,6.8,6.8,0,0,1-1.66.18,4.19,4.19,0,0,1-3-1.16,3.93,3.93,0,0,1-1.22-3,4,4,0,0,1,.64-2.38,4.21,4.21,0,0,1,1.8-1.44,9.9,9.9,0,0,1,2.85-.71c1.11-.12,2.3-.21,3.57-.28v-.33a2.49,2.49,0,0,0-.27-1.23,1.89,1.89,0,0,0-.74-.77,3.14,3.14,0,0,0-1.12-.36,9.91,9.91,0,0,0-1.36-.09,9.35,9.35,0,0,0-1.92.22,14.48,14.48,0,0,0-2.18.66h-.12v-2.22c.43-.12,1-.24,1.85-.38a13.93,13.93,0,0,1,2.38-.21,11.18,11.18,0,0,1,2.39.22,4.49,4.49,0,0,1,1.76.78,3.38,3.38,0,0,1,1.12,1.38,5.19,5.19,0,0,1,.38,2.1Zm-2.17-3.2V331l-2.36.17a12.14,12.14,0,0,0-2.14.34,3.59,3.59,0,0,0-1.52.83,2.4,2.4,0,0,0,.09,3.23,3.13,3.13,0,0,0,2.06.57,4.85,4.85,0,0,0,2.1-.45A9.63,9.63,0,0,0,715.93,334.64Z"/><path class="cls-4" d="M730.4,327.24h-.11a8.66,8.66,0,0,0-.95-.17c-.31,0-.67-.05-1.09-.05a4.49,4.49,0,0,0-2,.45,9,9,0,0,0-1.81,1.15v9.22H722.3v-13h2.19v1.92a10.43,10.43,0,0,1,2.29-1.48,5,5,0,0,1,2-.44,8.18,8.18,0,0,1,.83,0l.76.11Z"/><path class="cls-4" d="M734.8,322.69h-2.46v-2.27h2.46Zm-.13,15.15h-2.19v-13h2.19Z"/><path class="cls-4" d="M749.07,337.84H746.9v-1.38c-.19.13-.46.31-.78.55a6.09,6.09,0,0,1-1,.56,6.63,6.63,0,0,1-1.26.45,6.75,6.75,0,0,1-1.66.18,4.15,4.15,0,0,1-3-1.16,3.9,3.9,0,0,1-1.22-3,4.09,4.09,0,0,1,.63-2.38,4.24,4.24,0,0,1,1.81-1.44,9.91,9.91,0,0,1,2.84-.71c1.11-.12,2.3-.21,3.57-.28v-.33a2.61,2.61,0,0,0-.26-1.23,1.92,1.92,0,0,0-.75-.77,3,3,0,0,0-1.11-.36,10.06,10.06,0,0,0-1.37-.09,9.18,9.18,0,0,0-1.91.22,14.25,14.25,0,0,0-2.19.66h-.11v-2.22c.42-.12,1-.24,1.84-.38a14,14,0,0,1,2.39-.21,11.25,11.25,0,0,1,2.39.22,4.51,4.51,0,0,1,1.75.78,3.38,3.38,0,0,1,1.12,1.38,5.19,5.19,0,0,1,.38,2.1Zm-2.17-3.2V331l-2.35.17a12.28,12.28,0,0,0-2.15.34,3.65,3.65,0,0,0-1.52.83,2.4,2.4,0,0,0,.09,3.23,3.15,3.15,0,0,0,2.06.57,4.82,4.82,0,0,0,2.1-.45A9.3,9.3,0,0,0,746.9,334.64Z"/><path class="cls-4" d="M762.55,334.1a3.53,3.53,0,0,1-1.47,2.91,6.4,6.4,0,0,1-4,1.14,9.54,9.54,0,0,1-2.64-.34,11.9,11.9,0,0,1-2-.75v-2.45h.11a8.94,8.94,0,0,0,2.3,1.24,7.33,7.33,0,0,0,2.43.46,4.61,4.61,0,0,0,2.26-.47,1.57,1.57,0,0,0,.81-1.46,1.52,1.52,0,0,0-.44-1.17,4.12,4.12,0,0,0-1.7-.67L757,332.3c-.5-.1-1-.2-1.37-.31a4.49,4.49,0,0,1-2.42-1.33,3.26,3.26,0,0,1-.71-2.15,3.37,3.37,0,0,1,.33-1.51,3.63,3.63,0,0,1,1-1.27,4.81,4.81,0,0,1,1.66-.86,7.17,7.17,0,0,1,2.24-.32,10.14,10.14,0,0,1,2.36.28,9.07,9.07,0,0,1,2,.69v2.34h-.12a7.73,7.73,0,0,0-2-1,7.09,7.09,0,0,0-2.35-.43,4.16,4.16,0,0,0-2,.46,1.63,1.63,0,0,0-.33,2.58,4,4,0,0,0,1.59.66c.4.09.85.19,1.35.28s.92.18,1.25.25a4.65,4.65,0,0,1,2.34,1.2A3.15,3.15,0,0,1,762.55,334.1Z"/></g></g></g></svg>