<?xml version="1.0" encoding="UTF-8"?>
<svg width="700pt" height="700pt" version="1.1" viewBox="0 0 700 700" xmlns="http://www.w3.org/2000/svg" xmlns:xlink="http://www.w3.org/1999/xlink">
 <defs>
  <symbol id="s" overflow="visible">
   <path d="m3.2188-0.1875c-0.16797 0.085938-0.33984 0.14844-0.51562 0.1875-0.17969 0.039062-0.36719 0.0625-0.5625 0.0625-0.58594 0-1.0469-0.16016-1.3906-0.48438-0.34375-0.32031-0.51562-0.76562-0.51562-1.3281s0.17188-1.0039 0.51562-1.3281c0.34375-0.33203 0.80469-0.5 1.3906-0.5 0.19531 0 0.38281 0.027344 0.5625 0.078125 0.17578 0.042969 0.34766 0.10547 0.51562 0.1875v0.73438c-0.16797-0.11328-0.33594-0.19531-0.5-0.25-0.15625-0.0625-0.32422-0.09375-0.5-0.09375-0.32422 0-0.57812 0.10547-0.76562 0.3125-0.1875 0.21094-0.28125 0.49609-0.28125 0.85938 0 0.36719 0.09375 0.65234 0.28125 0.85938 0.1875 0.19922 0.44141 0.29688 0.76562 0.29688 0.17578 0 0.34375-0.023438 0.5-0.078125 0.16406-0.050781 0.33203-0.13281 0.5-0.25z"/>
  </symbol>
  <symbol id="b" overflow="visible">
   <path d="m2.3594-1.9219c-0.074219-0.03125-0.14844-0.050781-0.21875-0.0625-0.074219-0.019531-0.14844-0.03125-0.21875-0.03125-0.21875 0-0.38672 0.074219-0.5 0.21875-0.11719 0.13672-0.17188 0.32812-0.17188 0.57812v1.2188h-0.84375v-2.625h0.84375v0.42188c0.10156-0.16406 0.22266-0.28516 0.35938-0.35938 0.14453-0.082031 0.31641-0.125 0.51562-0.125h0.09375c0.03125 0 0.078125 0.007812 0.14062 0.015625z"/>
  </symbol>
  <symbol id="a" overflow="visible">
   <path d="m3.0312-1.3281v0.25h-1.9688c0.019531 0.19922 0.09375 0.35156 0.21875 0.45312 0.125 0.09375 0.29688 0.14062 0.51562 0.14062 0.17578 0 0.35156-0.023437 0.53125-0.078125 0.1875-0.0625 0.37891-0.14453 0.57812-0.25v0.65625c-0.19922 0.074219-0.39844 0.125-0.59375 0.15625-0.19922 0.039062-0.39844 0.0625-0.59375 0.0625-0.48047 0-0.85547-0.11719-1.125-0.35938-0.26172-0.23828-0.39062-0.57812-0.39062-1.0156 0-0.42578 0.12891-0.75781 0.39062-1 0.25781-0.25 0.61719-0.375 1.0781-0.375 0.40625 0 0.73438 0.125 0.98438 0.375 0.25 0.24219 0.375 0.57031 0.375 0.98438zm-0.85938-0.28125c0-0.15625-0.046875-0.28125-0.14062-0.375-0.09375-0.10156-0.21875-0.15625-0.375-0.15625s-0.28906 0.046875-0.39062 0.14062c-0.10547 0.09375-0.16797 0.22656-0.1875 0.39062z"/>
  </symbol>
  <symbol id="e" overflow="visible">
   <path d="m1.5781-1.1875c-0.16797 0-0.29688 0.03125-0.39062 0.09375-0.085938 0.0625-0.125 0.15234-0.125 0.26562 0 0.10547 0.03125 0.1875 0.09375 0.25 0.070312 0.0625 0.17188 0.09375 0.29688 0.09375 0.16406 0 0.30078-0.054687 0.40625-0.17188 0.10156-0.11328 0.15625-0.25781 0.15625-0.4375v-0.09375zm1.2969-0.3125v1.5h-0.85938v-0.39062c-0.10547 0.15625-0.23047 0.27344-0.375 0.34375-0.14844 0.070312-0.32031 0.10938-0.51562 0.10938-0.27344 0-0.49609-0.078125-0.67188-0.23438-0.16797-0.15625-0.25-0.36328-0.25-0.625 0-0.30078 0.10156-0.52344 0.3125-0.67188 0.21875-0.14453 0.55469-0.21875 1.0156-0.21875h0.48438v-0.0625c0-0.13281-0.054687-0.23438-0.15625-0.29688-0.10547-0.0625-0.26562-0.09375-0.48438-0.09375-0.17969 0-0.34375 0.023437-0.5 0.0625-0.15625 0.03125-0.30469 0.085937-0.4375 0.15625v-0.64062c0.17578-0.039062 0.35156-0.070312 0.53125-0.09375 0.1875-0.019531 0.375-0.03125 0.5625-0.03125 0.46875 0 0.80469 0.09375 1.0156 0.28125 0.21875 0.17969 0.32812 0.48047 0.32812 0.90625z"/>
  </symbol>
  <symbol id="d" overflow="visible">
   <path d="m1.3281-3.375v0.75h0.85938v0.59375h-0.85938v1.1094c0 0.125 0.019531 0.21094 0.0625 0.25 0.050781 0.042969 0.14844 0.0625 0.29688 0.0625h0.4375v0.60938h-0.73438c-0.33594 0-0.57031-0.066406-0.70312-0.20312-0.13672-0.14453-0.20312-0.38281-0.20312-0.71875v-1.1094h-0.42188v-0.59375h0.42188v-0.75z"/>
  </symbol>
  <symbol id="c" overflow="visible">
   <path d="m2.1875-2.25v-1.4062h0.85938v3.6562h-0.85938v-0.375c-0.11719 0.15625-0.24219 0.27344-0.375 0.34375-0.13672 0.0625-0.29688 0.09375-0.48438 0.09375-0.32422 0-0.58984-0.125-0.79688-0.375-0.21094-0.25781-0.3125-0.59375-0.3125-1s0.10156-0.73438 0.3125-0.98438c0.20703-0.25781 0.47266-0.39062 0.79688-0.39062 0.17578 0 0.33203 0.039062 0.46875 0.10938 0.14453 0.0625 0.27344 0.17188 0.39062 0.32812zm-0.54688 1.7031c0.17578 0 0.3125-0.0625 0.40625-0.1875 0.09375-0.13281 0.14062-0.32812 0.14062-0.57812s-0.046875-0.4375-0.14062-0.5625c-0.09375-0.13281-0.23047-0.20312-0.40625-0.20312-0.17969 0-0.3125 0.070313-0.40625 0.20312-0.09375 0.125-0.14062 0.3125-0.14062 0.5625s0.046875 0.44531 0.14062 0.57812c0.09375 0.125 0.22656 0.1875 0.40625 0.1875z"/>
  </symbol>
  <symbol id="j" overflow="visible">
   <path d="m1.8125-0.54688c0.17578 0 0.3125-0.0625 0.40625-0.1875 0.09375-0.13281 0.14062-0.32812 0.14062-0.57812s-0.046875-0.4375-0.14062-0.5625c-0.09375-0.13281-0.23047-0.20312-0.40625-0.20312-0.1875 0-0.32812 0.070313-0.42188 0.20312-0.09375 0.125-0.14062 0.3125-0.14062 0.5625s0.046875 0.44531 0.14062 0.57812c0.09375 0.125 0.23438 0.1875 0.42188 0.1875zm-0.5625-1.7031c0.11328-0.15625 0.23828-0.26562 0.375-0.32812 0.14453-0.070313 0.3125-0.10938 0.5-0.10938 0.32031 0 0.58594 0.13281 0.79688 0.39062 0.20703 0.25 0.3125 0.57812 0.3125 0.98438s-0.10547 0.74219-0.3125 1c-0.21094 0.25-0.47656 0.375-0.79688 0.375-0.1875 0-0.35547-0.039062-0.5-0.10938-0.13672-0.070313-0.26172-0.17969-0.375-0.32812v0.375h-0.84375v-3.6562h0.84375z"/>
  </symbol>
  <symbol id="i" overflow="visible">
   <path d="m0.0625-2.625h0.84375l0.70312 1.7812 0.59375-1.7812h0.84375l-1.1094 2.875c-0.10547 0.28906-0.23438 0.49219-0.39062 0.60938-0.14844 0.11328-0.33984 0.17188-0.57812 0.17188h-0.48438v-0.54688h0.26562c0.13281 0 0.23438-0.027344 0.29688-0.078125 0.070313-0.042969 0.125-0.12109 0.15625-0.23438l0.03125-0.078125z"/>
  </symbol>
  <symbol id="h" overflow="visible">
   <path d="m0.40625-2.625h0.84375v2.625h-0.84375zm0-1.0312h0.84375v0.6875h-0.84375z"/>
  </symbol>
  <symbol id="g" overflow="visible">
   <path d="m3.0469-1.6094v1.6094h-0.84375v-1.2344c0-0.21875-0.007813-0.36719-0.015625-0.45312-0.011719-0.09375-0.027344-0.16016-0.046875-0.20312-0.03125-0.050781-0.078125-0.09375-0.14062-0.125-0.054688-0.03125-0.11719-0.046875-0.1875-0.046875-0.17969 0-0.32031 0.070312-0.42188 0.20312-0.09375 0.13672-0.14062 0.32422-0.14062 0.5625v1.2969h-0.84375v-2.625h0.84375v0.375c0.125-0.15625 0.25391-0.26562 0.39062-0.32812 0.14453-0.070313 0.30469-0.10938 0.48438-0.10938 0.30078 0 0.53125 0.09375 0.6875 0.28125 0.15625 0.17969 0.23438 0.44531 0.23438 0.79688z"/>
  </symbol>
  <symbol id="r" overflow="visible">
   <path d="m2.1406-3.6562v0.54688h-0.46875c-0.125 0-0.21484 0.027344-0.26562 0.078125-0.042969 0.042969-0.0625 0.11719-0.0625 0.21875v0.1875h0.71875v0.59375h-0.71875v2.0312h-0.82812v-2.0312h-0.42188v-0.59375h0.42188v-0.1875c0-0.28906 0.078125-0.50391 0.23438-0.64062 0.15625-0.13281 0.39844-0.20312 0.73438-0.20312z"/>
  </symbol>
  <symbol id="f" overflow="visible">
   <path d="m1.6562-2.0938c-0.1875 0-0.33594 0.070312-0.4375 0.20312-0.09375 0.13672-0.14062 0.32812-0.14062 0.57812s0.046875 0.44531 0.14062 0.57812c0.10156 0.13672 0.25 0.20312 0.4375 0.20312s0.32812-0.066406 0.42188-0.20312c0.09375-0.13281 0.14062-0.32812 0.14062-0.57812s-0.046875-0.44141-0.14062-0.57812c-0.09375-0.13281-0.23438-0.20312-0.42188-0.20312zm0-0.59375c0.44531 0 0.79688 0.12109 1.0469 0.35938 0.25781 0.24219 0.39062 0.57812 0.39062 1.0156 0 0.42969-0.13281 0.76562-0.39062 1.0156-0.25 0.24219-0.60156 0.35938-1.0469 0.35938-0.46094 0-0.82031-0.11719-1.0781-0.35938-0.25-0.25-0.375-0.58594-0.375-1.0156 0-0.4375 0.125-0.77344 0.375-1.0156 0.25781-0.23828 0.61719-0.35938 1.0781-0.35938z"/>
  </symbol>
  <symbol id="q" overflow="visible">
   <path d="m2.8438-2.1875c0.10156-0.16406 0.22656-0.28906 0.375-0.375 0.14453-0.082031 0.30469-0.125 0.48438-0.125 0.30078 0 0.53125 0.09375 0.6875 0.28125 0.16406 0.17969 0.25 0.44531 0.25 0.79688v1.6094h-0.85938v-1.375c0.007812-0.019531 0.015625-0.039062 0.015625-0.0625v-0.09375c0-0.1875-0.03125-0.32031-0.09375-0.40625-0.054687-0.082031-0.14062-0.125-0.26562-0.125-0.15625 0-0.28125 0.070312-0.375 0.20312-0.085938 0.125-0.125 0.3125-0.125 0.5625v1.2969h-0.84375v-1.375c0-0.28906-0.027344-0.47656-0.078125-0.5625-0.054687-0.082031-0.14062-0.125-0.26562-0.125-0.15625 0-0.28125 0.070312-0.375 0.20312-0.085938 0.13672-0.125 0.32422-0.125 0.5625v1.2969h-0.84375v-2.625h0.84375v0.375c0.10156-0.14453 0.21875-0.25391 0.34375-0.32812 0.13281-0.070313 0.28516-0.10938 0.45312-0.10938 0.17578 0 0.33203 0.042969 0.46875 0.125 0.14453 0.085938 0.25391 0.21094 0.32812 0.375z"/>
  </symbol>
  <symbol id="p" overflow="visible">
   <path d="m3.0469-1.6094v1.6094h-0.84375v-1.2188c0-0.22656-0.007813-0.38281-0.015625-0.46875-0.011719-0.09375-0.027344-0.16016-0.046875-0.20312-0.03125-0.050781-0.078125-0.09375-0.14062-0.125-0.054688-0.03125-0.11719-0.046875-0.1875-0.046875-0.17969 0-0.32031 0.070312-0.42188 0.20312-0.09375 0.13672-0.14062 0.32422-0.14062 0.5625v1.2969h-0.84375v-3.6562h0.84375v1.4062c0.125-0.15625 0.25391-0.26562 0.39062-0.32812 0.14453-0.070313 0.30469-0.10938 0.48438-0.10938 0.30078 0 0.53125 0.09375 0.6875 0.28125 0.15625 0.17969 0.23438 0.44531 0.23438 0.79688z"/>
  </symbol>
  <symbol id="o" overflow="visible">
   <path d="m0.4375-3.5156h1.0156l1.2812 2.4062v-2.4062h0.84375v3.5156h-1l-1.2812-2.4062v2.4062h-0.85938z"/>
  </symbol>
  <symbol id="n" overflow="visible">
   <path d="m0.375-1.0312v-1.5938h0.84375v0.25 0.54688 0.42188c0 0.21875 0.003906 0.375 0.015625 0.46875 0.007813 0.09375 0.03125 0.16406 0.0625 0.20312 0.03125 0.054687 0.070313 0.09375 0.125 0.125 0.0625 0.03125 0.125 0.046875 0.1875 0.046875 0.17578 0 0.31641-0.066406 0.42188-0.20312 0.10156-0.13281 0.15625-0.32031 0.15625-0.5625v-1.2969h0.82812v2.625h-0.82812v-0.375c-0.13672 0.14844-0.27734 0.25781-0.42188 0.32812-0.13672 0.070312-0.28906 0.10938-0.45312 0.10938-0.30469 0-0.53906-0.085938-0.70312-0.26562-0.15625-0.1875-0.23438-0.46094-0.23438-0.82812z"/>
  </symbol>
  <symbol id="m" overflow="visible">
   <path d="m0.4375-3.5156h1.5c0.44531 0 0.78906 0.10547 1.0312 0.3125 0.23828 0.19922 0.35938 0.48047 0.35938 0.84375 0 0.36719-0.12109 0.64844-0.35938 0.84375-0.24219 0.19922-0.58594 0.29688-1.0312 0.29688h-0.59375v1.2188h-0.90625zm0.90625 0.65625v0.98438h0.5c0.17578 0 0.3125-0.039062 0.40625-0.125 0.09375-0.082031 0.14062-0.20312 0.14062-0.35938s-0.046875-0.27344-0.14062-0.35938c-0.09375-0.09375-0.23047-0.14062-0.40625-0.14062z"/>
  </symbol>
  <symbol id="l" overflow="visible">
   <path d="m0.40625-2.625h0.84375v2.5781c0 0.35156-0.089844 0.61719-0.26562 0.79688-0.16797 0.1875-0.41406 0.28125-0.73438 0.28125h-0.40625v-0.54688h0.14062c0.15625 0 0.26562-0.039063 0.32812-0.10938 0.0625-0.074219 0.09375-0.21484 0.09375-0.42188zm0-1.0312h0.84375v0.6875h-0.84375z"/>
  </symbol>
  <symbol id="k" overflow="visible">
   <path d="m2.5312-2.5469v0.6875c-0.11719-0.082031-0.23047-0.14062-0.34375-0.17188-0.11719-0.039062-0.23438-0.0625-0.35938-0.0625-0.24219 0-0.42969 0.070312-0.5625 0.20312-0.125 0.13672-0.1875 0.32812-0.1875 0.57812s0.0625 0.44531 0.1875 0.57812c0.13281 0.13672 0.32031 0.20312 0.5625 0.20312 0.13281 0 0.25781-0.019531 0.375-0.0625 0.11328-0.039062 0.22266-0.097656 0.32812-0.17188v0.6875c-0.13672 0.054688-0.27344 0.085938-0.40625 0.10938-0.13672 0.019531-0.27344 0.03125-0.40625 0.03125-0.46875 0-0.83984-0.11719-1.1094-0.35938-0.27344-0.23828-0.40625-0.57812-0.40625-1.0156s0.13281-0.77344 0.40625-1.0156c0.26953-0.23828 0.64062-0.35938 1.1094-0.35938 0.13281 0 0.26953 0.011719 0.40625 0.03125 0.13281 0.023438 0.26953 0.058594 0.40625 0.10938z"/>
  </symbol>
 </defs>
 <g>
  <path d="m0 0.20312c23.645 0 105.02 0 123.55 3.4492 35.953 6.6992 57.109 30.266 67.352 64.336 4.5 14.988 8.1914 30.727 11.344 46.969h216.88l-130.71 226.42h-52.77c5.5234 25.223 9.3867 39.094 15.102 44.105 22.324 19.566 337.71 6.707 337.71 12.152 43.422 1.793 77.742 37.609 77.742 81.09 0 44.809-36.348 81.156-81.156 81.156-53.707 0-93.012-51.855-77.957-103.8-65.195-0.097656-126.07-0.46094-172.07-1.7148 16.27 51.777-22.273 105.51-77.426 105.51-44.82 0-81.164-36.348-81.164-81.156 0-22.391 9.2539-43.883 25.629-59.172-12.867-16.789-18.766-39.73-26.488-75.863-18.023-84.309-17.004-177.56-41.418-258.78-3.6445-12.125-8.0195-20.637-21.254-23.102-12.316-2.293-90.246-2.293-112.89-2.293v-59.305zm475.29 114.75h53.676l-130.71 226.42h-53.688zm109.85 0h104.89c8.1836 0 12.137 7.7891 8.75 17.184-22.051 61.109-44.098 122.21-66.129 183.32-5.1953 14.398-20.867 25.906-34.824 25.906h-143.41l130.71-226.42zm-327.56 341.91c-12.078 0-21.852 9.7734-21.852 21.852s9.7734 21.852 21.852 21.852c12.066 0 21.852-9.7734 21.852-21.852s-9.7812-21.852-21.852-21.852zm342.91 6.3984c-3.9531-3.9531-9.418-6.3984-15.449-6.3984-6.043 0-11.508 2.4492-15.449 6.3984-3.9531 3.9414-6.3984 9.4062-6.3984 15.449 0 6.0352 2.4492 11.5 6.3984 15.449 3.9414 3.9531 9.4062 6.3984 15.449 6.3984 6.0352 0 11.5-2.4492 15.449-6.3984 3.9531-3.9531 6.3984-9.418 6.3984-15.449 0-6.043-2.4492-11.508-6.3984-15.449z"/>
  <use y="574.335938" xlink:href="#s"/>
  <use x="3.535156" y="574.335938" xlink:href="#b"/>
  <use x="5.914063" y="574.335938" xlink:href="#a"/>
  <use x="9.183594" y="574.335938" xlink:href="#e"/>
  <use x="12.433594" y="574.335938" xlink:href="#d"/>
  <use x="14.738281" y="574.335938" xlink:href="#a"/>
  <use x="18.007812" y="574.335938" xlink:href="#c"/>
  <use x="23.132813" y="574.335938" xlink:href="#j"/>
  <use x="26.582031" y="574.335938" xlink:href="#i"/>
  <use x="31.402344" y="574.335938" xlink:href="#e"/>
  <use x="34.65625" y="574.335938" xlink:href="#c"/>
  <use x="38.105469" y="574.335938" xlink:href="#h"/>
  <use x="39.757812" y="574.335938" xlink:href="#g"/>
  <use x="43.1875" y="574.335938" xlink:href="#c"/>
  <use x="46.636719" y="574.335938" xlink:href="#e"/>
  <use x="49.890625" y="574.335938" xlink:href="#b"/>
  <use y="579.15625" xlink:href="#r"/>
  <use x="2.097656" y="579.15625" xlink:href="#b"/>
  <use x="4.472656" y="579.15625" xlink:href="#f"/>
  <use x="7.785156" y="579.15625" xlink:href="#q"/>
  <use x="14.484375" y="579.15625" xlink:href="#d"/>
  <use x="16.789063" y="579.15625" xlink:href="#p"/>
  <use x="20.21875" y="579.15625" xlink:href="#a"/>
  <use x="25.164062" y="579.15625" xlink:href="#o"/>
  <use x="29.199219" y="579.15625" xlink:href="#f"/>
  <use x="32.507812" y="579.15625" xlink:href="#n"/>
  <use x="35.9375" y="579.15625" xlink:href="#g"/>
  <use x="41.046875" y="579.15625" xlink:href="#m"/>
  <use x="44.578125" y="579.15625" xlink:href="#b"/>
  <use x="46.957031" y="579.15625" xlink:href="#f"/>
  <use x="50.265625" y="579.15625" xlink:href="#l"/>
  <use x="51.917969" y="579.15625" xlink:href="#a"/>
  <use x="55.1875" y="579.15625" xlink:href="#k"/>
  <use x="58.042969" y="579.15625" xlink:href="#d"/>
 </g>
</svg>
